<?xml version="1.0" encoding="UTF-8" standalone="no"?>
<svg
   xmlns:dc="http://purl.org/dc/elements/1.1/"
   xmlns:cc="http://creativecommons.org/ns#"
   xmlns:rdf="http://www.w3.org/1999/02/22-rdf-syntax-ns#"
   xmlns:svg="http://www.w3.org/2000/svg"
   xmlns="http://www.w3.org/2000/svg"
   xmlns:sodipodi="http://sodipodi.sourceforge.net/DTD/sodipodi-0.dtd"
   xmlns:inkscape="http://www.inkscape.org/namespaces/inkscape"
   width="800"
   height="800"
   viewBox="0 0 211.66666 211.66667"
   version="1.1"
   id="svg8"
   inkscape:version="1.0.1 (3bc2e813f5, 2020-09-07)"
   sodipodi:docname="hugo_logo1.svg">
  <defs
     id="defs2">
    <rect
       x="-277.63927"
       y="-17.937563"
       width="101.12028"
       height="123.7709"
       id="rect886" />
  </defs>
  <sodipodi:namedview
     id="base"
     pagecolor="#5134d3"
     bordercolor="#666666"
     borderopacity="1.0"
     inkscape:pageopacity="0"
     inkscape:pageshadow="2"
     inkscape:zoom="0.24748737"
     inkscape:cx="106.06699"
     inkscape:cy="449.83797"
     inkscape:document-units="px"
     inkscape:current-layer="layer1"
     inkscape:document-rotation="0"
     showgrid="false"
     units="mm"
     inkscape:window-width="1294"
     inkscape:window-height="704"
     inkscape:window-x="1352"
     inkscape:window-y="158"
     inkscape:window-maximized="1"
     showguides="true"
     inkscape:guide-bbox="true"
     inkscape:snap-object-midpoints="true"
     inkscape:snap-nodes="true"
     inkscape:snap-intersection-paths="true"
     inkscape:object-paths="true"
     inkscape:snap-smooth-nodes="true"
     inkscape:snap-midpoints="true"
     inkscape:object-nodes="true"
     inkscape:snap-others="true">
    <sodipodi:guide
       position="105.83333,105.83333"
       orientation="-1,0"
       id="guide32"
       inkscape:label=""
       inkscape:locked="true"
       inkscape:color="rgb(0,0,255)" />
    <sodipodi:guide
       position="105.83333,105.83333"
       orientation="0,1"
       id="guide34"
       inkscape:label=""
       inkscape:locked="true"
       inkscape:color="rgb(0,0,255)" />
    <sodipodi:guide
       position="134.75239,45.897497"
       orientation="0,-1"
       id="guide924" />
  </sodipodi:namedview>
  <metadata
     id="metadata5">
    <rdf:RDF>
      <cc:Work
         rdf:about="">
        <dc:format>image/svg+xml</dc:format>
        <dc:type
           rdf:resource="http://purl.org/dc/dcmitype/StillImage" />
        <dc:title></dc:title>
      </cc:Work>
    </rdf:RDF>
  </metadata>
  <g
     inkscape:label="Calque 1"
     inkscape:groupmode="layer"
     id="layer1">
    <g
       id="g1158"
       transform="translate(369.55072,176.037)">
      <path
         id="path1012"
         style="fill:none;fill-opacity:1;stroke:#9c8b8b;stroke-width:2.64583;stroke-linecap:butt;stroke-linejoin:miter;stroke-miterlimit:4;stroke-dasharray:none;stroke-opacity:0.469432"
         d="m -263.71739,-70.20367 61.33701,35.44944 m -61.3054,-106.29355 -0.0316,70.84411 -61.36862,35.39469" />
      <g
         id="g949"
         transform="matrix(0.76880678,0,0,0.76880678,-345.89621,-151.54167)"
         style="stroke:#ffffff;stroke-opacity:1">
        <path
           id="path882"
           style="fill:none;stroke:#ffffff;stroke-width:13.2292;stroke-linecap:round;stroke-linejoin:round;stroke-miterlimit:4;stroke-dasharray:none;stroke-opacity:1"
           inkscape:transform-center-x="-0.39667328"
           inkscape:transform-center-y="-3.951203"
           d="m 106.93249,13.649581 79.78208,46.109682 m 0,0 -0.0411,92.148147 m 0,0 -79.82319,46.03846 m 0,0 -79.782079,-46.10968 m 0,0 0.04112,-92.148143 m 0,0 79.823189,-46.038466"
           sodipodi:nodetypes="cccccccccccc" />
      </g>
      <path
         d="m -279.71717,-69.8229 v 37.98318 c 0,3.19556 0,3.32086 -0.34978,3.88478 -0.46637,0.62657 -1.54049,0.8772 -4.89695,0.8772 h -1.04935 v 2.94492 h 19.12142 v -2.94492 h -1.04933 c -3.32319,0 -4.43058,-0.25063 -4.89696,-0.8772 -0.34978,-0.56392 -0.34978,-0.62658 -0.34978,-3.88478 v -77.49048 c 0,-3.03144 0,-3.08974 0.34978,-3.61441 0.52468,-0.64127 1.57402,-0.81616 4.89696,-0.81616 h 1.04933 v -2.73996 h -18.88823 v 2.73996 h 0.81616 c 3.32294,0 4.37228,0.17489 4.89695,0.81616 0.34978,0.52467 0.34978,0.64126 0.34978,3.61441 v 36.35925 h -19.5295 v -20.899825 c 0,-2.973149 0,-3.089743 0.40808,-3.614416 0.46637,-0.641267 1.51573,-0.816159 4.83866,-0.816159 h 1.10764 v -2.73996 h -19.17972 v 2.73996 h 1.04935 c 3.32292,0 4.37227,0.174892 4.89695,0.816159 0.34977,0.524673 0.34977,0.641267 0.34977,3.614416 v 47.683895 c 0,2.91485 0,3.08974 -0.34977,3.61441 -0.44955,0.6594 -1.42992,0.81616 -4.89695,0.81616 h -1.04935 v 2.73997 h 19.17972 v -2.73997 h -1.10764 c -3.32293,-0.0583 -4.37229,-0.23319 -4.83866,-0.81616 -0.40808,-0.52467 -0.40808,-0.64125 -0.40808,-3.61441 V -69.8229 Z"
         style="font-style:normal;font-variant:normal;font-weight:normal;font-stretch:normal;font-size:39.6875px;line-height:1.25;font-family:C059;-inkscape-font-specification:C059;text-align:end;letter-spacing:0px;word-spacing:0px;text-anchor:end;white-space:pre;fill:#ffffff;stroke-width:1.4689"
         id="path917"
         sodipodi:nodetypes="cscsccccscsscsccccscsccscsccccscsscsccccccscc" />
      <path
         d="m -237.29829,-116.13863 -2.69895,-0.006 -14.86075,82.18327 c 0,0 -0.9874,2.56874 -1.51983,3.48213 -1.33928,2.29757 -2.942,3.13612 -5.56355,3.31429 l -0.25705,-5.3e-4 -0.006,3.02027 17.02914,0.0367 0.006,-3.02027 -1.2852,-0.003 c -3.47009,-0.008 -5.20251,-1.23217 -5.19725,-3.6741 2.25415,-13.00702 4.87056,-27.05704 6.78523,-40.48743 l 11.74043,0.0367 4.67201,28.14615 0.23629,1.48157 c 0.60995,1.38421 -3.71371,1.91677 -3.71371,1.91677 l -2.69896,-0.006 -0.006,3.02028 19.92088,0.0429 0.006,-3.02028 -0.89963,-0.002 c -3.34144,-0.0715 -3.91897,-0.45829 -5.38907,-4.12433 z m -2.76464,11.75251 6.40848,29.65689 -10.733,-0.031 z"
         style="font-style:normal;font-variant:normal;font-weight:normal;font-stretch:normal;font-size:39.6875px;line-height:1.25;font-family:C059;-inkscape-font-specification:C059;text-align:end;letter-spacing:0px;word-spacing:0px;text-anchor:end;white-space:pre;fill:#ffffff;stroke-width:1.61918"
         id="path919"
         sodipodi:nodetypes="cccsccccccccccccccccccccccc" />
      <path
         style="fill:none;stroke:#ffffff;stroke-width:2.64583;stroke-linecap:butt;stroke-linejoin:miter;stroke-miterlimit:4;stroke-dasharray:none;stroke-opacity:1"
         d="m -347.2712,-118.49319 23.27487,12.80448"
         id="path998" />
      <path
         style="fill:none;stroke:#ffffff;stroke-width:2.64583;stroke-linecap:butt;stroke-linejoin:miter;stroke-miterlimit:4;stroke-dasharray:none;stroke-opacity:1"
         d="m -263.71739,-166.68331 0.0316,25.63553"
         id="path1000" />
      <path
         style="fill:none;stroke:#ffffff;stroke-width:2.64583;stroke-linecap:butt;stroke-linejoin:miter;stroke-miterlimit:4;stroke-dasharray:none;stroke-opacity:1"
         d="m -180.12054,-118.41861 -22.22824,12.82026"
         id="path1002" />
      <path
         style="fill:none;stroke:#ffffff;stroke-width:2.64583;stroke-linecap:butt;stroke-linejoin:miter;stroke-miterlimit:4;stroke-dasharray:none;stroke-opacity:1"
         d="m -180.16364,-21.91414 -22.21674,-12.84009"
         id="path1004" />
      <path
         style="fill:none;stroke:#ffffff;stroke-width:2.64583;stroke-linecap:butt;stroke-linejoin:miter;stroke-miterlimit:4;stroke-dasharray:none;stroke-opacity:1"
         d="M -263.71739,26.27598 V 0.62223"
         id="path1006" />
      <path
         style="fill:none;stroke:#ffffff;stroke-width:2.64583;stroke-linecap:butt;stroke-linejoin:miter;stroke-miterlimit:4;stroke-dasharray:none;stroke-opacity:1"
         d="M -347.31424,-21.98872 -325.086,-34.80898"
         id="path1008" />
    </g>
  </g>
</svg>
